<svg width="114" height="85" viewBox="0 0 114 85" fill="none" xmlns="http://www.w3.org/2000/svg">
<path d="M0 4.5814C0 2.60345 1.90279 1 4.25 1H29.75C32.0972 1 34 2.60345 34 4.5814V74.4186C34 76.3966 32.0972 78 29.75 78H4.25C1.90279 78 0 76.3966 0 74.4186V4.5814Z" fill="#E6524B"/>
<path d="M21.6772 28.408C22.7653 27.2347 23.3093 25.6667 23.3093 23.704C23.3093 21.7413 22.7653 20.1733 21.6772 19C20.6106 17.8267 19.1706 17.24 17.3573 17.24C15.5653 17.24 14.1253 17.8267 13.0373 19C11.9706 20.1733 11.4373 21.7413 11.4373 23.704C11.4373 25.6667 11.9706 27.2347 13.0373 28.408C14.1253 29.5813 15.5653 30.168 17.3573 30.168C19.1706 30.168 20.6106 29.5813 21.6772 28.408ZM9.19725 31.96C6.97858 29.784 5.86925 27.032 5.86925 23.704C5.86925 20.376 6.97858 17.6347 9.19725 15.48C11.4373 13.304 14.1679 12.216 17.3893 12.216C20.6319 12.216 23.3519 13.304 25.5493 15.48C27.7679 17.6347 28.8773 20.376 28.8773 23.704C28.8773 27.032 27.7679 29.784 25.5493 31.96C23.3306 34.136 20.6106 35.224 17.3893 35.224C14.1679 35.224 11.4373 34.136 9.19725 31.96Z" fill="white"/>
<path d="M43.3345 21.042V23.283C44.2885 21.645 45.8365 20.826 47.9785 20.826C49.6885 20.826 51.0835 21.393 52.1635 22.527C53.2435 23.643 53.7835 25.2 53.7835 27.198V36H50.0035V27.738C50.0035 26.568 49.7065 25.677 49.1125 25.065C48.5185 24.435 47.7085 24.12 46.6825 24.12C45.6565 24.12 44.8375 24.435 44.2255 25.065C43.6315 25.677 43.3345 26.568 43.3345 27.738V36H39.5275V21.042H43.3345ZM61.2045 36V16.02H65.0115V36H61.2045ZM76.5949 35.73L70.7359 21.042H75.0019L78.8089 31.68L82.8319 21.042H86.8009L77.4589 43.074H73.4899L76.5949 35.73Z" fill="white"/>
<path d="M46.4563 65.003C47.5183 65.003 48.4273 64.616 49.1833 63.842C49.9573 63.05 50.3443 61.943 50.3443 60.521C50.3443 59.081 49.9663 57.974 49.2103 57.2C48.4543 56.426 47.5363 56.039 46.4563 56.039C45.3943 56.039 44.4943 56.426 43.7563 57.2C43.0183 57.974 42.6493 59.081 42.6493 60.521C42.6493 61.961 43.0183 63.068 43.7563 63.842C44.4943 64.616 45.3943 65.003 46.4563 65.003ZM40.9753 66.083C39.5173 64.661 38.7883 62.798 38.7883 60.494C38.7883 58.19 39.5263 56.336 41.0023 54.932C42.4783 53.528 44.3053 52.826 46.4833 52.826C48.6793 52.826 50.5153 53.528 51.9913 54.932C53.4673 56.336 54.2053 58.19 54.2053 60.494C54.2053 62.798 53.4583 64.661 51.9643 66.083C50.4883 67.505 48.6523 68.216 46.4563 68.216C44.2603 68.216 42.4333 67.505 40.9753 66.083ZM67.3687 65.003C68.4307 65.003 69.3397 64.616 70.0957 63.842C70.8697 63.05 71.2567 61.943 71.2567 60.521C71.2567 59.081 70.8787 57.974 70.1227 57.2C69.3667 56.426 68.4487 56.039 67.3687 56.039C66.3067 56.039 65.4067 56.426 64.6687 57.2C63.9307 57.974 63.5617 59.081 63.5617 60.521C63.5617 61.961 63.9307 63.068 64.6687 63.842C65.4067 64.616 66.3067 65.003 67.3687 65.003ZM61.8877 66.083C60.4297 64.661 59.7007 62.798 59.7007 60.494C59.7007 58.19 60.4387 56.336 61.9147 54.932C63.3907 53.528 65.2177 52.826 67.3957 52.826C69.5917 52.826 71.4277 53.528 72.9037 54.932C74.3797 56.336 75.1177 58.19 75.1177 60.494C75.1177 62.798 74.3707 64.661 72.8767 66.083C71.4007 67.505 69.5647 68.216 67.3687 68.216C65.1727 68.216 63.3457 67.505 61.8877 66.083ZM85.446 68H81.639V48.02H85.446V59.441L90.495 53.042H95.652L89.01 60.602L95.652 68H90.576L85.446 61.763V68ZM100.501 57.416C100.501 56.12 101.05 55.031 102.148 54.149C103.246 53.267 104.704 52.826 106.522 52.826C108.34 52.826 109.798 53.267 110.896 54.149C111.994 55.013 112.579 56.192 112.651 57.686H108.763C108.655 56.426 107.881 55.796 106.441 55.796C105.721 55.796 105.163 55.94 104.767 56.228C104.371 56.516 104.173 56.912 104.173 57.416C104.173 57.92 104.47 58.316 105.064 58.604C105.658 58.892 106.378 59.117 107.224 59.279C108.07 59.441 108.907 59.648 109.735 59.9C110.581 60.134 111.301 60.566 111.895 61.196C112.489 61.808 112.786 62.627 112.786 63.653C112.786 65.003 112.21 66.101 111.058 66.947C109.924 67.793 108.466 68.216 106.684 68.216C104.92 68.216 103.471 67.802 102.337 66.974C101.203 66.128 100.582 64.922 100.474 63.356H104.362C104.506 64.616 105.307 65.246 106.765 65.246C107.467 65.246 108.034 65.093 108.466 64.787C108.898 64.463 109.114 64.049 109.114 63.545C109.114 63.023 108.817 62.618 108.223 62.33C107.629 62.024 106.909 61.79 106.063 61.628C105.217 61.466 104.371 61.268 103.525 61.034C102.697 60.8 101.986 60.386 101.392 59.792C100.798 59.18 100.501 58.388 100.501 57.416Z" fill="white"/>
<path d="M8.8375 45.536H18.5975C20.8802 45.536 22.6935 46.0907 24.0375 47.2C25.4028 48.3093 26.0855 49.7173 26.0855 51.424C26.0855 53.9627 24.6028 55.68 21.6375 56.576C23.1522 56.7893 24.3575 57.4187 25.2535 58.464C26.1495 59.5093 26.5975 60.736 26.5975 62.144C26.5975 63.936 25.9362 65.3653 24.6135 66.432C23.3122 67.4773 21.4882 68 19.1415 68H8.8375V45.536ZM14.3095 49.696V54.56H17.8935C18.6828 54.56 19.3122 54.3573 19.7815 53.952C20.2722 53.5467 20.5175 52.9493 20.5175 52.16C20.5175 51.3493 20.2722 50.7413 19.7815 50.336C19.3122 49.9093 18.6828 49.696 17.8935 49.696H14.3095ZM14.3095 63.84H18.4375C19.1842 63.84 19.8028 63.616 20.2935 63.168C20.7842 62.72 21.0295 62.1013 21.0295 61.312C21.0295 60.5227 20.7948 59.8933 20.3255 59.424C19.8562 58.9547 19.2482 58.72 18.5015 58.72H14.3095V63.84Z" fill="white"/>
</svg>
