<svg width="20" height="20" viewBox="0 0 20 20" fill="none" xmlns="http://www.w3.org/2000/svg">
<g clip-path="url(#clip0_1:1101)">
<path fill-rule="evenodd" clip-rule="evenodd" d="M15.176 13.7618C16.3183 12.3145 17 10.4869 17 8.5C17 3.80558 13.1944 0 8.5 0C3.80558 0 0 3.80558 0 8.5C0 13.1944 3.80558 17 8.5 17C10.4869 17 12.3145 16.3183 13.7618 15.176L18.2929 19.7071C18.6834 20.0976 19.3166 20.0976 19.7071 19.7071C20.0976 19.3166 20.0976 18.6834 19.7071 18.2929L15.176 13.7618ZM8.5 15.5546C4.60384 15.5546 1.44538 12.3962 1.44538 8.5C1.44538 4.60384 4.60384 1.44538 8.5 1.44538C12.3962 1.44538 15.5546 4.60384 15.5546 8.5C15.5546 12.3962 12.3962 15.5546 8.5 15.5546Z" fill="#737E89"/>
</g>
<defs>
<clipPath id="clip0_1:1101">
<rect width="20" height="20" fill="white"/>
</clipPath>
</defs>
</svg>
